<svg xmlns="http://www.w3.org/2000/svg" version="1.1" xmlns:xlink="http://www.w3.org/1999/xlink" xmlns:svgjs="http://svgjs.dev/svgjs" width="1440" height="560" preserveAspectRatio="none" viewBox="0 0 1440 560"><g mask="url(&quot;#SvgjsMask1001&quot;)" fill="none"><rect width="1440" height="560" x="0" y="0" fill="rgba(184, 53, 57, 1)"></rect><path d="M0,634.993C118.946,611.789,140.904,442.731,237.455,369.488C322.474,304.993,464.527,328.209,522.509,238.622C580.59,148.883,532.23,31.128,525.494,-75.555C518.114,-192.43,557.304,-327.953,481.118,-416.891C404.938,-505.821,263.325,-481.186,150.665,-513.119C39.343,-544.673,-63.514,-625.021,-177.201,-603.492C-293.836,-581.405,-386.035,-491.357,-458.944,-397.677C-529.406,-307.141,-565.237,-197.172,-581.787,-83.648C-598.363,30.05,-604.691,149.897,-553.79,252.907C-503.542,354.594,-398.89,411.002,-305.531,475.415C-209.004,542.014,-115.103,657.448,0,634.993" fill="#932a2e"></path><path d="M1440 895.874C1525.443 916.037 1610.606 985.127 1691.874 951.923 1771.9560000000001 919.204 1814.335 822.668 1828.1779999999999 737.275 1840.864 659.016 1791.841 587.392 1762.934 513.569 1740.4850000000001 456.23699999999997 1707.141 408.006 1678.009 353.764 1639.105 281.326 1634.7350000000001 181.34699999999998 1562.962 141.22899999999998 1490.949 100.97699999999998 1400.787 133.82600000000002 1320.821 154.113 1238.247 175.062 1143.647 190.96300000000002 1094.012 260.2 1044.913 328.68899999999996 1071.703 422.34299999999996 1068.173 506.539 1065.031 581.49 1038.5729999999999 661.059 1074.443 726.944 1109.799 791.884 1187.34 817.687 1254.461 848.7049999999999 1313.586 876.028 1376.608 880.915 1440 895.874" fill="#cd5054"></path></g><defs><mask id="SvgjsMask1001"><rect width="1440" height="560" fill="#ffffff"></rect></mask></defs></svg>