<svg xmlns="http://www.w3.org/2000/svg" version="1.1" xmlns:xlink="http://www.w3.org/1999/xlink" xmlns:svgjs="http://svgjs.dev/svgjs" width="1440" height="560" preserveAspectRatio="none" viewBox="0 0 1440 560"><g mask="url(&quot;#SvgjsMask1019&quot;)" fill="none"><rect width="1440" height="560" x="0" y="0" fill="rgba(244, 122, 32, 1)"></rect><path d="M0,513.742C109.575,534.524,225.016,553.37,327.785,510.044C438.686,463.29,539.274,378.486,584.949,267.137C630.073,157.131,590.145,35.245,570.66,-82.049C551.603,-196.766,549.756,-322.505,472.552,-409.468C395.617,-496.128,275.225,-532.971,159.936,-544.691C55.945,-555.263,-39.509,-505.24,-138.47,-471.585C-232.95,-439.454,-332.097,-418.777,-406.353,-352.107C-486.526,-280.125,-555.115,-188.654,-572.103,-82.256C-589.195,24.794,-558.378,137.197,-498.956,227.866C-443.597,312.336,-344.19,349.008,-256.56,399.215C-173.619,446.736,-93.916,495.93,0,513.742" fill="#d25f0a"></path><path d="M1440 1257.204C1569.798 1256.017 1686.982 1183.306 1788.98 1103.024 1884.31 1027.991 1974.625 934.511 2000.554 815.9970000000001 2024.882 704.803 1931.257 604.081 1922.98 490.558 1913.748 363.935 2009.643 230.26299999999998 1949.689 118.35199999999998 1889.488 5.980000000000018 1751.2939999999999-57.712999999999965 1624.167-67.21400000000006 1503.544-76.22900000000004 1406.561 20.486999999999966 1295.975 69.495 1202.109 111.094 1107.4 139.971 1023.4110000000001 199.02300000000002 916.524 274.174 770.5 332.19100000000003 741.229 459.532 712.1 586.253 820.785 700.1030000000001 881.843 814.902 939.1800000000001 922.7049999999999 991.197 1033.608 1086.895 1109.442 1188.962 1190.324 1309.776 1258.394 1440 1257.204" fill="#f79955"></path></g><defs><mask id="SvgjsMask1019"><rect width="1440" height="560" fill="#ffffff"></rect></mask></defs></svg>