<svg xmlns="http://www.w3.org/2000/svg" version="1.1" xmlns:xlink="http://www.w3.org/1999/xlink" xmlns:svgjs="http://svgjs.dev/svgjs" width="1440" height="560" preserveAspectRatio="none" viewBox="0 0 1440 560"><g mask="url(&quot;#SvgjsMask1009&quot;)" fill="none"><rect width="1440" height="560" x="0" y="0" fill="rgba(49, 125, 52, 1)"></rect><path d="M0,416.154C75.316,402.416,124.109,334.649,187.109,291.148C247.545,249.417,331.805,232.269,362.762,165.668C393.743,99.015,347.305,23.8,345.53,-49.68C343.435,-136.371,390.043,-226.861,351.403,-304.492C310.583,-386.503,225.896,-444.273,137.381,-467.875C49.722,-491.249,-44.764,-470.644,-126.852,-432.017C-202.049,-396.633,-247.218,-324.18,-301.58,-261.32C-355.885,-198.527,-438.607,-146.761,-445.122,-63.999C-451.62,18.547,-370.096,78.01,-334.162,152.607C-299.198,225.191,-300.059,318.577,-236.8,368.468C-172.272,419.36,-80.848,430.901,0,416.154" fill="#27642a"></path><path d="M1440 1069.788C1564.0430000000001 1064.924 1696.024 1187.982 1801.128 1121.926 1905.975 1056.031 1875.871 893.643 1909.776 774.54 1937.885 675.797 1997.687 583.538 1983.329 481.881 1968.9560000000001 380.122 1884.6689999999999 308.696 1831.5520000000001 220.71800000000002 1765.537 111.37700000000001 1755.53-61.25599999999997 1633.212-98.02099999999996 1511.105-134.72299999999996 1412.109 13.735000000000014 1292.833 58.795000000000016 1185.783 99.23599999999999 1060 82.137 969.826 152.59199999999998 871.14 229.69799999999998 797.054 341.15 773.92 464.23199999999997 750.345 589.66 792.807 715.338 841.913 833.137 892.389 954.223 938.2149999999999 1102.717 1060.1979999999999 1150.983 1183.066 1199.5990000000002 1307.964 1074.966 1440 1069.788" fill="#3b963e"></path></g><defs><mask id="SvgjsMask1009"><rect width="1440" height="560" fill="#ffffff"></rect></mask></defs></svg>